<?xml version="1.0" standalone="no"?><!DOCTYPE svg PUBLIC "-//W3C//DTD SVG 1.1//EN" "http://www.w3.org/Graphics/SVG/1.1/DTD/svg11.dtd"><svg t="1768977907291" class="icon" viewBox="0 0 1024 1024" version="1.1" xmlns="http://www.w3.org/2000/svg" p-id="4471" xmlns:xlink="http://www.w3.org/1999/xlink" width="200" height="200"><path d="M505.984 912.128a404.352 404.352 0 0 1-393.92-302.336l66.112-10.752a339.2 339.2 0 0 0 327.808 246.4 336.832 336.832 0 0 0 339.2-333.312 336.832 336.832 0 0 0-339.2-333.312 339.2 339.2 0 0 0-288 156.992h126.208v66.88H144.064a32 32 0 0 1-32-32V169.28H178.56v106.24a410.112 410.112 0 0 1 327.424-163.392 403.2 403.2 0 0 1 406.08 400 403.52 403.52 0 0 1-406.08 400z m111.36-205.888L448 536.96V352.064h64v158.336l150.464 150.656-44.8 45.184z" p-id="4472" fill="#707070"></path></svg>