<?xml version="1.0" standalone="no"?><!DOCTYPE svg PUBLIC "-//W3C//DTD SVG 1.1//EN" "http://www.w3.org/Graphics/SVG/1.1/DTD/svg11.dtd"><svg t="1768979271049" class="icon" viewBox="0 0 1024 1024" version="1.1" xmlns="http://www.w3.org/2000/svg" p-id="4707" xmlns:xlink="http://www.w3.org/1999/xlink" width="200" height="200"><path d="M157.636966 1024A157.636966 157.636966 0 0 1 0 866.747202V157.50891A157.765022 157.765022 0 0 1 157.636966 0h709.110236A157.765022 157.765022 0 0 1 1024.448196 157.50891v709.238292a157.636966 157.636966 0 0 1-157.700994 157.252798zM78.498343 157.50891v709.238292a79.202651 79.202651 0 0 0 79.138623 79.138623h709.110236a79.266679 79.266679 0 0 0 79.202651-79.138623V157.50891a79.202651 79.202651 0 0 0-79.202651-79.010567H157.636966A79.138623 79.138623 0 0 0 78.498343 157.50891z m623.312699 595.460514a33.678734 33.678734 0 0 1-24.842868-11.076846 49.621709 49.621709 0 0 1-10.30851-34.319015V408.178578a48.149065 48.149065 0 0 1 9.732257-33.422622l0.960421-1.152504a32.654286 32.654286 0 0 1 24.394672-10.692679H704.308135a35.599575 35.599575 0 0 1 25.611205 11.012819 48.661289 48.661289 0 0 1 10.436566 34.319014v299.651097a48.277121 48.277121 0 0 1-10.756706 34.511099 33.614706 33.614706 0 0 1-25.291065 10.884762z m-135.483274 0a29.388858 29.388858 0 0 1-23.626336-11.332958l-1.728756-2.112924a75.489026 75.489026 0 0 1-7.811418-14.790471c-1.408616-2.817233-2.56112-5.570437-3.393485-7.491278l-2.112924-4.866129-21.449384-55.768398a1.728756 1.728756 0 0 0-1.6007-1.024449H349.721003a1.856812 1.856812 0 0 0-1.728756 1.408617l-18.119928 48.405177a169.290064 169.290064 0 0 1-17.223535 37.648471 27.724129 27.724129 0 0 1-23.882449 9.98837 34.383043 34.383043 0 0 1-24.394672-9.98837 32.014006 32.014006 0 0 1-10.884762-23.050084 57.625211 57.625211 0 0 1 2.24098-14.982555L256.112049 704.308135l0.64028-1.6007c2.24098-6.082661 5.058213-13.830051 8.323642-21.641469L372.066779 408.498718A129.528669 129.528669 0 0 1 384.168074 384.552242a52.310886 52.310886 0 0 1 16.455199-15.622835h0.448196a53.14325 53.14325 0 0 1 23.882448-5.890578H428.987682a51.22241 51.22241 0 0 1 24.074533 5.762522 48.213093 48.213093 0 0 1 17.287563 15.366723 108.207341 108.207341 0 0 1 10.692678 19.656599v0.384168c2.625149 7.363221 6.402801 16.519227 11.653098 29.64497l99.243419 246.059651a121.653223 121.653223 0 0 1 11.653099 39.3132 36.303883 36.303883 0 0 1-34.959295 34.190958zM424.889889 441.793285l-56.472706 157.18877a2.369036 2.369036 0 0 0 0 1.856812 1.728756 1.728756 0 0 0 1.216532 0.512224h114.35403a2.689177 2.689177 0 0 0 1.6007-0.896392 1.856812 1.856812 0 0 0 0-1.28056L428.027262 441.793285a1.6007 1.6007 0 0 0-1.536672-1.088477 1.664728 1.664728 0 0 0-1.600701 1.088477z m72.47971-197.526418a37.456387 37.456387 0 0 1-42.770712-42.642656 37.328331 37.328331 0 0 1 42.5146-42.386545h29.452886a37.456387 37.456387 0 0 1 42.770712 42.386545 37.520415 37.520415 0 0 1-42.770712 42.578628z m-147.648596 0a37.392359 37.392359 0 0 1-42.386544-42.642656 37.328331 37.328331 0 0 1 42.450572-42.386545h29.452886a37.776527 37.776527 0 0 1 42.770712 42.386545 37.840555 37.840555 0 0 1-42.770712 42.578628z m-147.968736 0a37.328331 37.328331 0 0 1-42.386544-42.578628 37.264303 37.264303 0 0 1 42.386544-42.386545h29.901081a37.264303 37.264303 0 0 1 42.386544 42.386545 37.328331 37.328331 0 0 1-42.386544 42.578628z" p-id="4708" fill="#707070"></path></svg>